<?xml version="1.0" encoding="utf-8"?><svg xmlns="http://www.w3.org/2000/svg" xmlns:xlink="http://www.w3.org/1999/xlink" width="2560" height="1121" preserveAspectRatio="xMidYMid" viewBox="0 0 2560 1121" style="z-index:1;margin-right:-2px;display:block;background-repeat-y:initial;background-repeat-x:initial;background-color:rgb(241, 242, 243);animation-play-state:paused" ><g transform="translate(1280,560.5) scale(1,1) translate(-1280,-560.5)" style="transform:matrix(1, 0, 0, 1, 0, 0);animation-play-state:paused" ><linearGradient id="lg-0.13866658064535287" x1="0" x2="1" y1="0" y2="0" style="animation-play-state:paused" ><stop stop-color="#3e6d8d" offset="0" style="animation-play-state:paused" ></stop>

  
<stop stop-color="#4b9bbe" offset="1" style="animation-play-state:paused" ></stop></linearGradient>
<path d="M 0 0 M 0 978.226 Q 213.333 964.09 426.667 956.123 T 853.333 965.214 T 1280 971.919 T 1706.67 900.095 T 2133.33 803.402 T 2560 773.827 L 2560 285.912 Q 2346.67 256.098 2133.33 249.208 T 1706.67 198.403 T 1280 195.759 T 853.333 211.521 T 426.667 170.505 T 0 106.723 Z" fill="url(#lg-0.13866658064535287)" opacity="0.4" style="opacity:0.4;animation-play-state:paused" ></path>
<path d="M 0 0 M 0 1010.67 Q 213.333 925.307 426.667 917.471 T 853.333 979.533 T 1280 886.604 T 1706.67 910.405 T 2133.33 872.885 T 2560 826.303 L 2560 307.573 Q 2346.67 327.461 2133.33 324.679 T 1706.67 260.685 T 1280 234.637 T 853.333 198.646 T 426.667 128.957 T 0 127.685 Z" fill="url(#lg-0.13866658064535287)" opacity="0.4" style="opacity:0.4;animation-play-state:paused" ></path>
<path d="M 0 0 M 0 1020.08 Q 213.333 952.045 426.667 946.446 T 853.333 891.626 T 1280 911.416 T 1706.67 921.909 T 2133.33 840.324 T 2560 829.976 L 2560 355.834 Q 2346.67 261.197 2133.33 252.407 T 1706.67 291.029 T 1280 174.856 T 853.333 160.146 T 426.667 135.833 T 0 95.8424 Z" fill="url(#lg-0.13866658064535287)" opacity="0.4" style="opacity:0.4;animation-play-state:paused" ></path>
<path d="M 0 0 M 0 954.893 Q 213.333 957.843 426.667 953.461 T 853.333 912.323 T 1280 861.598 T 1706.67 904.785 T 2133.33 886.305 T 2560 788.107 L 2560 362.887 Q 2346.67 238.188 2133.33 231.811 T 1706.67 210.349 T 1280 244.193 T 853.333 169.651 T 426.667 125.981 T 0 136.599 Z" fill="url(#lg-0.13866658064535287)" opacity="0.4" style="opacity:0.4;animation-play-state:paused" ></path>
<path d="M 0 0 M 0 997.223 Q 213.333 951.766 426.667 950.202 T 853.333 977.136 T 1280 903.242 T 1706.67 859.632 T 2133.33 879.688 T 2560 840.94 L 2560 297.749 Q 2346.67 254.385 2133.33 251.646 T 1706.67 289.11 T 1280 194.94 T 853.333 195.038 T 426.667 132.824 T 0 141.6 Z" fill="url(#lg-0.13866658064535287)" opacity="0.4" style="opacity:0.4;animation-play-state:paused" ></path></g></svg>